<?xml version="1.0" encoding="utf-8"?>
<!-- Generator: Adobe Illustrator 16.0.0, SVG Export Plug-In . SVG Version: 6.00 Build 0)  -->
<!DOCTYPE svg PUBLIC "-//W3C//DTD SVG 1.1//EN" "http://www.w3.org/Graphics/SVG/1.1/DTD/svg11.dtd">
<svg version="1.1" id="Layer_1" xmlns="http://www.w3.org/2000/svg" xmlns:xlink="http://www.w3.org/1999/xlink" x="0px" y="0px"
	 width="500px" height="280px" viewBox="0 0 500 280" enable-background="new 0 0 500 280" xml:space="preserve">
<g>
	<path fill="#FFFFFF" d="M5.627,122.24V67.826h10.576v45.141h27.742v9.273H5.627z"/>
	<path fill="#FFFFFF" d="M68.319,123.006c-3.219,0-6.132-0.551-8.736-1.648c-2.606-1.098-4.829-2.592-6.668-4.482
		s-3.257-4.088-4.254-6.592c-0.995-2.502-1.494-5.135-1.494-7.893c0-2.861,0.484-5.557,1.456-8.086
		c0.971-2.529,2.377-4.752,4.216-6.668s4.073-3.436,6.706-4.561c2.63-1.123,5.581-1.686,8.852-1.686s6.195,0.562,8.775,1.686
		c2.579,1.125,4.777,2.633,6.591,4.521c1.813,1.893,3.192,4.088,4.14,6.592c0.944,2.504,1.417,5.109,1.417,7.816
		c0,0.666-0.014,1.303-0.038,1.916c-0.026,0.615-0.09,1.125-0.19,1.533H58.05c0.153,1.584,0.537,2.988,1.149,4.215
		s1.404,2.273,2.376,3.143c0.971,0.87,2.068,1.533,3.296,1.992c1.227,0.461,2.503,0.691,3.832,0.691c2.042,0,3.973-0.5,5.785-1.494
		c1.812-0.998,3.054-2.312,3.719-3.947l8.812,2.451c-1.481,3.066-3.846,5.584-7.09,7.549
		C76.686,122.023,72.814,123.006,68.319,123.006z M78.742,98.787c-0.257-3.014-1.368-5.428-3.335-7.242
		c-1.968-1.812-4.355-2.721-7.164-2.721c-1.381,0-2.672,0.242-3.871,0.729c-1.201,0.486-2.262,1.162-3.182,2.031
		c-0.921,0.869-1.674,1.916-2.261,3.141c-0.588,1.229-0.934,2.582-1.035,4.062H78.742z"/>
	<path fill="#FFFFFF" d="M115.3,102.16c0-2.811,0.483-5.467,1.455-7.971c0.97-2.504,2.375-4.699,4.215-6.592
		c1.841-1.889,4.062-3.396,6.668-4.521c2.605-1.123,5.543-1.686,8.813-1.686c4.395,0,8.136,0.945,11.228,2.836
		c3.091,1.891,5.403,4.367,6.938,7.434l-10.039,3.064c-0.87-1.48-2.021-2.617-3.449-3.41c-1.433-0.791-3.017-1.188-4.752-1.188
		c-1.482,0-2.861,0.295-4.141,0.881c-1.276,0.588-2.389,1.406-3.333,2.453s-1.686,2.312-2.223,3.795
		c-0.536,1.48-0.805,3.117-0.805,4.904c0,1.789,0.279,3.424,0.843,4.904c0.562,1.482,1.315,2.76,2.261,3.832
		c0.944,1.074,2.058,1.904,3.335,2.492c1.276,0.586,2.631,0.881,4.062,0.881c1.84,0,3.538-0.461,5.097-1.381
		c1.558-0.918,2.645-2.043,3.257-3.371l10.04,3.064c-1.379,3.066-3.652,5.57-6.819,7.512c-3.171,1.941-6.976,2.912-11.422,2.912
		c-3.27,0-6.207-0.562-8.812-1.686c-2.604-1.123-4.827-2.645-6.667-4.561s-3.257-4.139-4.254-6.668
		C115.797,107.562,115.3,104.918,115.3,102.16z"/>
	<path fill="#FFFFFF" d="M200.293,122.24h-10.271V99.707c0-3.168-0.588-5.504-1.762-7.012c-1.177-1.508-2.837-2.262-4.982-2.262
		c-0.919,0-1.89,0.205-2.911,0.613c-1.022,0.408-1.992,0.984-2.912,1.725s-1.765,1.623-2.529,2.643
		c-0.767,1.023-1.329,2.146-1.688,3.373v23.453h-10.27V66.291h10.27v23.223c1.481-2.605,3.487-4.611,6.018-6.016
		s5.326-2.107,8.392-2.107c2.606,0,4.727,0.447,6.361,1.34c1.636,0.895,2.913,2.082,3.833,3.564c0.919,1.482,1.557,3.17,1.915,5.059
		c0.356,1.891,0.537,3.832,0.537,5.824V122.24L200.293,122.24z"/>
	<path fill="#FFFFFF" d="M21.261,199.646c-2.759,0-5.314-0.537-7.664-1.609c-2.351-1.072-4.368-2.555-6.054-4.445
		c-1.688-1.889-3.002-4.1-3.947-6.629c-0.946-2.529-1.418-5.25-1.418-8.162s0.446-5.621,1.342-8.123
		c0.895-2.504,2.133-4.701,3.716-6.592c1.584-1.889,3.476-3.371,5.673-4.445c2.196-1.072,4.6-1.609,7.203-1.609
		c2.964,0,5.634,0.716,8.011,2.146c2.376,1.432,4.228,3.297,5.557,5.596v-22.84h10.269v44.146c0,1.071,0.181,1.84,0.537,2.299
		s0.972,0.715,1.84,0.769v8.735c-1.788,0.354-3.245,0.535-4.368,0.535c-1.84,0-3.349-0.459-4.521-1.379
		c-1.177-0.92-1.839-2.119-1.993-3.603l-0.229-2.529c-1.482,2.556-3.487,4.482-6.018,5.787
		C26.664,198.996,24.021,199.646,21.261,199.646z M23.944,190.908c0.971,0,1.968-0.164,2.988-0.496
		c1.021-0.332,1.967-0.807,2.836-1.418c0.868-0.613,1.647-1.33,2.337-2.146c0.69-0.815,1.214-1.711,1.572-2.684v-9.58
		c-0.41-1.123-0.985-2.156-1.726-3.104c-0.74-0.945-1.583-1.762-2.528-2.453c-0.946-0.688-1.943-1.236-2.989-1.646
		c-1.048-0.408-2.083-0.613-3.104-0.613c-1.531,0-2.951,0.332-4.253,0.996c-1.304,0.666-2.414,1.57-3.334,2.723
		c-0.921,1.148-1.637,2.466-2.146,3.945c-0.51,1.482-0.766,3.016-0.766,4.598c0,1.689,0.279,3.246,0.843,4.677
		c0.562,1.433,1.328,2.683,2.299,3.756c0.971,1.072,2.134,1.916,3.487,2.529C20.813,190.604,22.309,190.908,23.944,190.908z"/>
	<path fill="#FFFFFF" d="M74.603,199.646c-3.219,0-6.132-0.549-8.736-1.648c-2.605-1.098-4.828-2.592-6.667-4.482
		c-1.841-1.889-3.259-4.088-4.255-6.592c-0.995-2.502-1.494-5.135-1.494-7.895c0-2.859,0.484-5.557,1.457-8.084
		c0.97-2.529,2.375-4.752,4.215-6.668s4.073-3.437,6.706-4.562c2.631-1.122,5.581-1.687,8.852-1.687c3.27,0,6.195,0.562,8.775,1.687
		c2.58,1.125,4.776,2.634,6.591,4.521c1.812,1.892,3.192,4.089,4.139,6.593s1.419,5.108,1.419,7.815c0,0.666-0.014,1.303-0.04,1.916
		c-0.024,0.613-0.089,1.125-0.189,1.533h-31.04c0.153,1.586,0.537,2.988,1.149,4.215c0.612,1.228,1.404,2.275,2.376,3.144
		c0.971,0.87,2.069,1.53,3.296,1.991s2.503,0.691,3.831,0.691c2.043,0,3.973-0.5,5.787-1.496c1.812-0.996,3.054-2.311,3.717-3.945
		l8.812,2.451c-1.482,3.066-3.844,5.584-7.088,7.551C82.968,198.662,79.098,199.646,74.603,199.646z M85.026,175.428
		c-0.257-3.014-1.368-5.428-3.335-7.242c-1.967-1.813-4.354-2.721-7.165-2.721c-1.38,0-2.671,0.242-3.872,0.729
		c-1.199,0.486-2.261,1.164-3.18,2.029c-0.92,0.871-1.674,1.916-2.262,3.144c-0.587,1.228-0.933,2.581-1.033,4.062H85.026
		L85.026,175.428z"/>
	<path fill="#FFFFFF" d="M118.978,199.646c-3.372,0-6.668-0.537-9.887-1.609s-5.979-2.605-8.277-4.598l3.832-6.438
		c2.452,1.735,4.84,3.054,7.165,3.944c2.325,0.896,4.639,1.343,6.938,1.343c2.043,0,3.651-0.384,4.828-1.147
		c1.175-0.769,1.764-1.865,1.764-3.295c0-1.433-0.69-2.48-2.069-3.144c-1.38-0.664-3.629-1.433-6.745-2.3
		c-2.605-0.717-4.828-1.405-6.668-2.069c-1.839-0.664-3.321-1.42-4.444-2.263c-1.124-0.842-1.941-1.812-2.452-2.911
		c-0.511-1.099-0.768-2.414-0.768-3.947c0-2.043,0.396-3.883,1.188-5.519c0.791-1.637,1.902-3.028,3.334-4.178
		c1.43-1.149,3.103-2.031,5.02-2.643c1.916-0.615,3.997-0.92,6.246-0.92c3.016,0,5.837,0.434,8.471,1.301
		c2.63,0.871,5.044,2.275,7.241,4.217l-4.14,6.207c-2.043-1.533-4.021-2.656-5.939-3.371c-1.915-0.715-3.818-1.072-5.709-1.072
		c-1.737,0-3.193,0.357-4.367,1.072c-1.178,0.715-1.765,1.865-1.765,3.449c0,0.715,0.142,1.301,0.422,1.762s0.729,0.869,1.343,1.228
		c0.61,0.356,1.417,0.702,2.413,1.034s2.233,0.679,3.718,1.035c2.759,0.715,5.121,1.431,7.089,2.146
		c1.966,0.718,3.576,1.533,4.828,2.453s2.171,1.979,2.76,3.18c0.587,1.201,0.882,2.646,0.882,4.33c0,3.937-1.457,7.039-4.369,9.312
		C127.943,198.51,123.983,199.646,118.978,199.646z"/>
	<path fill="#FFFFFF" d="M161.588,178.801c0-2.811,0.483-5.467,1.456-7.971c0.97-2.504,2.376-4.701,4.216-6.592
		c1.839-1.889,4.062-3.396,6.667-4.521c2.605-1.123,5.543-1.686,8.813-1.686c4.394,0,8.137,0.945,11.228,2.836
		c3.091,1.889,5.403,4.369,6.938,7.434l-10.04,3.064c-0.869-1.48-2.02-2.615-3.449-3.41c-1.432-0.791-3.016-1.188-4.751-1.188
		c-1.482,0-2.862,0.295-4.14,0.881c-1.277,0.588-2.39,1.406-3.334,2.453c-0.945,1.049-1.686,2.312-2.223,3.795
		c-0.536,1.481-0.805,3.115-0.805,4.903c0,1.789,0.28,3.423,0.843,4.904c0.562,1.481,1.314,2.758,2.261,3.832
		c0.945,1.071,2.058,1.903,3.334,2.491c1.276,0.586,2.632,0.88,4.062,0.88c1.84,0,3.537-0.46,5.097-1.38
		c1.558-0.92,2.644-2.043,3.258-3.37l10.039,3.065c-1.379,3.064-3.653,5.568-6.821,7.51c-3.168,1.942-6.975,2.912-11.419,2.912
		c-3.271,0-6.209-0.562-8.812-1.686c-2.606-1.123-4.829-2.645-6.668-4.561c-1.84-1.916-3.257-4.14-4.253-6.666
		C162.086,184.203,161.588,181.561,161.588,178.801z"/>
</g>
<g>
	<g>
		<path fill="#FFFFFF" d="M251.482,101.979c0,11.482-9.311,20.807-20.794,20.807c-11.486,0-20.801-9.324-20.801-20.807
			c0-11.488,9.313-20.801,20.801-20.801C242.172,81.178,251.482,90.49,251.482,101.979z"/>
		<path fill="#FFFFFF" d="M251.482,178.576c0,11.484-9.311,20.809-20.794,20.809c-11.486,0-20.801-9.324-20.801-20.809
			c0-11.486,9.313-20.799,20.801-20.799C242.172,157.777,251.482,167.09,251.482,178.576z"/>
	</g>
	<g>
		<path fill="#FFFFFF" d="M251.482,25.379c0,11.484-9.311,20.807-20.794,20.807c-11.486,0-20.801-9.322-20.801-20.807
			c0-11.486,9.313-20.801,20.801-20.801C242.172,4.578,251.482,13.893,251.482,25.379z"/>
	</g>
	<g>
		<path fill="#FFFFFF" d="M251.482,255.176c0,11.484-9.311,20.809-20.794,20.809c-11.486,0-20.801-9.323-20.801-20.809
			c0-11.486,9.313-20.799,20.801-20.799C242.172,234.377,251.482,243.689,251.482,255.176z"/>
	</g>
</g>
<g>
	<path fill="#FFFFFF" d="M262.422,76.73V66.537h10.271V76.73H262.422z M262.422,122.484v-40.16h10.271v40.16H262.422z"/>
	<path fill="#FFFFFF" d="M290.243,82.324l8.659,12.57l0.612,1.379l0.768-1.379l8.584-12.57h10.576l-14.333,20.158l14.562,20.002
		h-10.577l-8.89-12.492l-0.69-1.303l-0.612,1.303l-8.813,12.492h-10.576l14.484-20.002l-14.255-20.158H290.243z"/>
	<path fill="#FFFFFF" d="M274.686,199.893c-4.139,0-7.281-1.33-9.428-3.985c-2.146-2.656-3.219-6.591-3.219-11.804v-25.137h10.27
		v22.914c0,6.184,2.223,9.275,6.668,9.275c1.993,0,3.921-0.602,5.786-1.803c1.865-1.199,3.384-3.027,4.562-5.479v-24.908h10.271
		v28.354c0,1.074,0.191,1.841,0.573,2.3c0.384,0.461,1.009,0.717,1.879,0.769v8.735c-1.023,0.205-1.879,0.332-2.568,0.383
		c-0.688,0.054-1.314,0.078-1.877,0.078c-1.84,0-3.334-0.422-4.482-1.267c-1.15-0.842-1.828-2.004-2.031-3.485l-0.23-3.22
		c-1.789,2.759-4.088,4.828-6.896,6.207C281.152,199.2,278.058,199.893,274.686,199.893z"/>
	<path fill="#FFFFFF" d="M311.625,143.178h10.27v43.072c0,1.482,0.357,2.631,1.073,3.447c0.716,0.82,1.736,1.229,3.066,1.229
		c0.61,0,1.288-0.104,2.03-0.309c0.739-0.201,1.441-0.459,2.106-0.766l1.38,7.817c-1.38,0.664-2.989,1.177-4.828,1.531
		c-1.839,0.358-3.501,0.536-4.98,0.536c-3.221,0-5.71-0.854-7.474-2.567c-1.764-1.711-2.645-4.149-2.645-7.317L311.625,143.178
		L311.625,143.178z"/>
	<path fill="#FFFFFF" d="M356.536,199.893c-3.22,0-6.133-0.551-8.737-1.647c-2.606-1.099-4.829-2.593-6.669-4.483
		c-1.839-1.89-3.257-4.087-4.253-6.591s-1.494-5.135-1.494-7.896c0-2.86,0.484-5.557,1.455-8.086
		c0.971-2.528,2.377-4.75,4.216-6.668c1.84-1.916,4.074-3.434,6.707-4.559c2.631-1.125,5.582-1.688,8.853-1.688
		c3.27,0,6.194,0.562,8.774,1.688c2.578,1.125,4.776,2.631,6.592,4.521c1.812,1.891,3.191,4.088,4.14,6.59
		c0.943,2.504,1.417,5.111,1.417,7.818c0,0.664-0.015,1.303-0.038,1.916c-0.027,0.612-0.09,1.125-0.191,1.532h-31.04
		c0.153,1.584,0.536,2.988,1.149,4.216c0.613,1.227,1.404,2.272,2.376,3.141c0.972,0.871,2.068,1.535,3.295,1.994
		c1.228,0.459,2.504,0.688,3.833,0.688c2.043,0,3.973-0.498,5.786-1.493c1.812-0.996,3.052-2.312,3.718-3.947l8.812,2.453
		c-1.481,3.065-3.847,5.582-7.09,7.549C364.902,198.91,361.031,199.893,356.536,199.893z M366.958,175.672
		c-0.256-3.012-1.367-5.428-3.333-7.24c-1.97-1.812-4.357-2.723-7.165-2.723c-1.381,0-2.672,0.244-3.871,0.73
		c-1.201,0.483-2.261,1.162-3.181,2.031c-0.921,0.866-1.675,1.913-2.262,3.141c-0.588,1.227-0.934,2.582-1.035,4.061H366.958z"/>
	<path fill="#FFFFFF" d="M397.997,199.893c-4.139,0-7.28-1.33-9.427-3.985c-2.146-2.656-3.219-6.591-3.219-11.804v-25.137h10.271
		v22.914c0,6.184,2.223,9.275,6.666,9.275c1.993,0,3.922-0.602,5.786-1.803c1.864-1.199,3.385-3.027,4.561-5.479v-24.908h10.271
		v28.354c0,1.074,0.191,1.841,0.574,2.3c0.385,0.461,1.008,0.717,1.878,0.769v8.735c-1.022,0.205-1.878,0.332-2.565,0.383
		c-0.69,0.054-1.316,0.078-1.879,0.078c-1.841,0-3.334-0.422-4.482-1.267c-1.149-0.842-1.829-2.004-2.031-3.485l-0.229-3.22
		c-1.79,2.759-4.091,4.828-6.899,6.207C404.464,199.2,401.369,199.893,397.997,199.893z"/>
	<path fill="#FFFFFF" d="M458.927,167.855c-3.117,0.053-5.9,0.651-8.354,1.803c-2.452,1.148-4.216,2.873-5.289,5.172v24.295h-10.269
		v-40.158h9.427v8.584c0.714-1.381,1.559-2.619,2.529-3.719c0.97-1.098,2.018-2.055,3.143-2.873c1.122-0.816,2.26-1.443,3.41-1.879
		c1.149-0.432,2.261-0.65,3.333-0.65c0.562,0,0.983,0,1.265,0c0.282,0,0.55,0.025,0.806,0.076V167.855z"/>
	<path fill="#FFFFFF" d="M481.766,199.893c-3.372,0-6.667-0.537-9.886-1.61c-3.221-1.072-5.979-2.604-8.278-4.599l3.831-6.438
		c2.454,1.738,4.841,3.053,7.167,3.947c2.323,0.895,4.636,1.342,6.935,1.342c2.045,0,3.653-0.385,4.83-1.15
		c1.174-0.768,1.763-1.865,1.763-3.295c0-1.432-0.689-2.479-2.068-3.143c-1.381-0.664-3.628-1.432-6.746-2.299
		c-2.604-0.715-4.827-1.406-6.667-2.07c-1.838-0.664-3.322-1.418-4.445-2.26c-1.124-0.844-1.939-1.814-2.451-2.914
		c-0.511-1.098-0.768-2.412-0.768-3.945c0-2.045,0.396-3.883,1.188-5.52c0.792-1.633,1.902-3.027,3.334-4.176
		c1.431-1.15,3.104-2.031,5.021-2.646c1.917-0.613,3.998-0.921,6.247-0.921c3.015,0,5.835,0.437,8.469,1.304
		c2.63,0.869,5.044,2.274,7.241,4.215l-4.139,6.209c-2.043-1.532-4.022-2.655-5.938-3.372c-1.917-0.716-3.818-1.072-5.709-1.072
		c-1.739,0-3.193,0.356-4.369,1.072c-1.176,0.717-1.763,1.866-1.763,3.448c0,0.717,0.139,1.304,0.42,1.765
		c0.281,0.459,0.729,0.866,1.343,1.227c0.612,0.357,1.418,0.701,2.414,1.033c0.996,0.334,2.233,0.678,3.716,1.035
		c2.761,0.715,5.122,1.432,7.092,2.146c1.966,0.715,3.573,1.53,4.827,2.451c1.252,0.92,2.171,1.979,2.76,3.182
		c0.588,1.201,0.882,2.646,0.882,4.33c0,3.935-1.457,7.039-4.368,9.312C490.732,198.756,486.771,199.893,481.766,199.893z"/>
</g>
</svg>
